<svg width="627" height="632" viewBox="0 0 627 632" fill="none" xmlns="http://www.w3.org/2000/svg">
<path d="M261.5 312.5L317.5 362L371.5 312.5" stroke="black" stroke-width="7"/>
<path d="M200.5 312.347L312.092 413L419 312.347" stroke="black" stroke-width="7"/>
<path d="M165 393L314.5 535.5L472.5 387" stroke="black" stroke-width="7"/>
<path d="M200 374L312 476L420 374" stroke="black" stroke-width="7"/>
<path d="M419 301L456 336L472.5 382.5L464.5 437L426 476.5L388 519.5" stroke="black" stroke-width="7"/>
<path d="M202 293.5L163 341V384L169.5 436.5L199 475L229 504.5L244 517.5" stroke="black" stroke-width="7"/>
<path d="M200.5 294L200.5 476.5" stroke="black" stroke-width="7"/>
<path d="M418.486 304L418.486 485.5" stroke="black" stroke-width="7"/>
<path d="M226.5 452V504.5" stroke="black" stroke-width="7"/>
<path d="M401 453V503.5" stroke="black" stroke-width="7"/>
<path d="M254 64L226 40" stroke="black" stroke-width="7"/>
<path d="M276 52L258 20" stroke="black" stroke-width="7"/>
<path d="M296 43L283 4" stroke="black" stroke-width="7"/>
<path d="M318 43L322 1" stroke="black" stroke-width="7"/>
<path d="M339 47L347 5" stroke="black" stroke-width="7"/>
<path d="M405 43L373 64" stroke="black" stroke-width="7"/>
<path d="M356 56L376 17" stroke="black" stroke-width="7"/>
<path d="M276 50L254 64.5L261.5 81L282.5 64.5L312 59L338.5 64.5L366 74L373.5 64.5L348.5 50L305.5 40L276 50Z" stroke="black" stroke-width="7"/>
<path d="M99.5 224.5L121 185L143 163" stroke="black" stroke-width="7"/>
<path d="M65 239L95 175L129 140" stroke="black" stroke-width="7"/>
<path d="M192.5 94L226.5 77.5" stroke="black" stroke-width="7"/>
<path d="M399 74L435 90.5" stroke="black" stroke-width="7"/>
<path d="M209 109L237 96" stroke="black" stroke-width="7"/>
<path d="M386 97.5L412 108.5" stroke="black" stroke-width="7"/>
<path d="M500 142.5L541.5 190.5L563.5 234.5" stroke="black" stroke-width="7"/>
<path d="M488 165.5L513 196L528.5 221.5" stroke="black" stroke-width="7"/>
<path d="M370.5 597L422 586" stroke="black" stroke-width="7"/>
<path d="M256 601L202.5 580.5" stroke="black" stroke-width="7"/>
<path d="M112.5 522.5L95.5 503" stroke="black" stroke-width="7"/>
<path d="M517 522.5L533 504" stroke="black" stroke-width="7"/>
<path d="M213.5 186L203.5 202.5L197 231L203.5 263L231 281.5L256 287L281.5 281.5L291.5 270.5" stroke="black" stroke-width="7"/>
<path d="M339.5 270.5L364 286H394.5L421 264L428.5 241V215L421 196L414.5 183" stroke="black" stroke-width="7"/>
<path d="M278 151H247.5L298.5 184L292.5 163.5L278 151Z" stroke="black" stroke-width="7"/>
<path d="M348.5 151H379L327.5 181.5L334 163.5L348.5 151Z" stroke="black" stroke-width="7"/>
<path d="M368 156.5L438.5 143.5L472.5 121.5" stroke="black" stroke-width="7"/>
<path d="M155 117L175.5 136.5L247.5 151" stroke="black" stroke-width="7"/>
<path d="M211 196L230 209.5" stroke="black" stroke-width="7"/>
<path d="M274 282L267 261" stroke="black" stroke-width="7"/>
<path d="M246.5 284L254 262" stroke="black" stroke-width="7"/>
<path d="M221 273L238 252" stroke="black" stroke-width="7"/>
<path d="M203 253L228 242" stroke="black" stroke-width="7"/>
<path d="M196 221.5L226 222" stroke="black" stroke-width="7"/>
<path d="M420 194L397.5 209" stroke="black" stroke-width="7"/>
<path d="M357 281.5L364 260" stroke="black" stroke-width="7"/>
<path d="M387 285L382.5 261.5" stroke="black" stroke-width="7"/>
<path d="M413 275L394.5 252.5" stroke="black" stroke-width="7"/>
<path d="M428.5 252L402 241" stroke="black" stroke-width="7"/>
<path d="M427.5 220L404 226" stroke="black" stroke-width="7"/>
<path d="M244.5 150.5L261.5 101.5L297 77.5H337.5L366 101.5L381.5 146.5" stroke="black" stroke-width="7"/>
<path d="M185 116L147.5 86.5L156.5 126L170.5 160L259.5 199.5L311 239L368 193L461.5 160L471.5 126L477 86.5L456 108.5L390 144.5L311 193L242.5 148.5L185 116Z" stroke="black" stroke-width="7"/>
<path d="M250.5 137L312 124.5L377 130" stroke="black" stroke-width="7"/>
<path d="M305.5 238L286 262L314.5 314.5L338.5 256.5L322 238" stroke="black" stroke-width="7"/>
<path d="M192.5 176.5L175 208V249L201.5 289.5L229 310.5H277L298 289.5" stroke="black" stroke-width="7"/>
<path d="M326.5 290L359.5 310.5H404.5L439.5 280.5L452.5 239V205L429.5 174" stroke="black" stroke-width="7"/>
<path d="M242 195L225.5 217L232 247.5L258.5 262L286 247.5V223.5" stroke="black" stroke-width="7"/>
<path d="M335.5 231L351.5 253L380.5 261L404.5 243.5V216L380.5 196" stroke="black" stroke-width="7"/>
<path d="M259 206.5L245.5 219L259 235.5L270.5 228V212.5" stroke="black" stroke-width="7"/>
<path d="M367.5 205L381 217.5L367.5 234L356 226.5V211" stroke="black" stroke-width="7"/>
<path d="M209.5 552L133 509L76.5 432L54 355V274" stroke="black" stroke-width="7"/>
<path d="M74 268L58 303L95 283.5L103 257L74 268Z" stroke="black" stroke-width="7"/>
<path d="M20 252V225L35.5 234L50 252V283.5L20 252Z" stroke="black" stroke-width="7"/>
<path d="M40 326.5L50 354.5L28 345L9 326.5L5 300L40 326.5Z" stroke="black" stroke-width="7"/>
<path d="M100 326V300L70.5 321L60 354.5L81.5 343L100 326Z" stroke="black" stroke-width="7"/>
<path d="M75.5 427.5L52 395L24 387L33 412L56.5 427.5L75.5 431.5" stroke="black" stroke-width="7"/>
<path d="M131.5 450.5L120.5 483L109.5 457V432.5L120.5 416.5L131.5 450.5Z" stroke="black" stroke-width="7"/>
<path d="M76 455L103.5 470.5L113 485H95L63 477.5L43 459.5L76 455Z" stroke="black" stroke-width="7"/>
<path d="M161.5 497L175.5 522.5L203.5 540.5L189.5 497L161.5 472.5V497Z" stroke="black" stroke-width="7"/>
<path d="M129 530L109 542L147.5 555L168 542V530H129Z" stroke="black" stroke-width="7"/>
<path d="M190.5 567.5L217 551.5L186.5 542L163 551.5L155 567.5H190.5Z" stroke="black" stroke-width="7"/>
<path d="M110.5 387L80 419V375.5L110.5 349.5V387Z" stroke="black" stroke-width="7"/>
<path d="M417.5 553L494 510L550.5 433L573 356V275" stroke="black" stroke-width="7"/>
<path d="M553 269L569 304L532 284.5L524 258L553 269Z" stroke="black" stroke-width="7"/>
<path d="M607 253V226L591.5 235L577 253V284.5L607 253Z" stroke="black" stroke-width="7"/>
<path d="M587 327.5L577 355.5L599 346L618 327.5L622 301L587 327.5Z" stroke="black" stroke-width="7"/>
<path d="M529 322V296L558.5 317L569 350.5L547.5 339L529 322Z" stroke="black" stroke-width="7"/>
<path d="M551 425.5L574.5 393L602.5 385L593.5 410L570 425.5L551 429.5" stroke="black" stroke-width="7"/>
<path d="M495.5 451.5L506.5 484L517.5 458V433.5L506.5 417.5L495.5 451.5Z" stroke="black" stroke-width="7"/>
<path d="M551 456L523.5 471.5L514 486H532L564 478.5L584 460.5L551 456Z" stroke="black" stroke-width="7"/>
<path d="M465.5 498L451.5 523.5L423.5 541.5L437.5 498L465.5 473.5V498Z" stroke="black" stroke-width="7"/>
<path d="M498 531L518 543L479.5 556L459 543V531H498Z" stroke="black" stroke-width="7"/>
<path d="M436.5 568.5L410 552.5L440.5 543L464 552.5L472 568.5H436.5Z" stroke="black" stroke-width="7"/>
<path d="M516.5 388L547 420V376.5L516.5 350.5V388Z" stroke="black" stroke-width="7"/>
<path d="M245.5 519L254 510L270.5 519V558.5L259.5 579L245.5 558.5V519Z" stroke="black" stroke-width="7"/>
<path d="M286 509L273 521.5L270.5 561L283 575.5L300 555.5V523.5L291 513" stroke="black" stroke-width="7"/>
<path d="M332 556V526.5L348.5 510L360.5 526.5V569.5L348.5 577L332 556Z" stroke="black" stroke-width="7"/>
<path d="M386 561.5V519L371.5 503.5L360.5 519V561.5L371.5 580.5L386 561.5Z" stroke="black" stroke-width="7"/>
<path d="M299 555.5L283.5 576V609L299 628.5H330.5L345 609V576L330.5 555.5" stroke="black" stroke-width="7"/>
<path d="M302.5 587L314.5 576L326.5 581.5V604.5H314.5H302.5V587Z" stroke="black" stroke-width="7"/>
<path d="M299 557H331.5" stroke="black" stroke-width="7"/>
</svg>
